<svg xmlns="http://www.w3.org/2000/svg" xmlns:xlink="http://www.w3.org/1999/xlink" width="170.883" height="41.105" viewBox="0 0 170.883 41.105">
  <defs>
    <linearGradient id="linear-gradient" x1="0.5" y1="-0.09" x2="0.5" y2="0.72" gradientUnits="objectBoundingBox">
      <stop offset="0" stop-color="#226af8"/>
      <stop offset="1" stop-color="#3544fc"/>
    </linearGradient>
    <linearGradient id="linear-gradient-2" x1="0.5" y1="0.199" x2="0.5" y2="0.803" xlink:href="#linear-gradient"/>
    <linearGradient id="linear-gradient-3" x1="0.5" y1="-0.07" x2="0.5" y2="0.737" xlink:href="#linear-gradient"/>
    <linearGradient id="linear-gradient-4" x1="0.5" y1="-0.054" x2="0.5" y2="0.569" xlink:href="#linear-gradient"/>
    <linearGradient id="linear-gradient-5" x1="0.5" y1="0.257" x2="0.5" y2="0.882" gradientUnits="objectBoundingBox">
      <stop offset="0" stop-color="#fd6517"/>
      <stop offset="1" stop-color="#fc340c"/>
    </linearGradient>
    <linearGradient id="linear-gradient-6" x1="0.5" y1="0.449" x2="0.5" y2="0.926" xlink:href="#linear-gradient-5"/>
    <linearGradient id="linear-gradient-7" x1="0.5" y1="-1.507" x2="0.5" y2="0.671" xlink:href="#linear-gradient-5"/>
    <linearGradient id="linear-gradient-8" y1="0.5" x2="1" y2="0.5" gradientUnits="objectBoundingBox">
      <stop offset="0" stop-color="#fc5a1b"/>
      <stop offset="1" stop-color="#fb2d13"/>
    </linearGradient>
  </defs>
  <g id="Group_5605" data-name="Group 5605" transform="translate(-316 -242.078)">
    <ellipse id="Ellipse_319" data-name="Ellipse 319" cx="19.5" cy="20" rx="19.5" ry="20" transform="translate(317 242.078)" fill="#23c1fd"/>
    <g id="Group_5387" data-name="Group 5387" transform="translate(364.092 248.105)">
      <g id="Group_5409" data-name="Group 5409" transform="translate(0)">
        <path id="Path_4360" data-name="Path 4360" d="M149.51,417.888v.064a9.225,9.225,0,0,1-18.434.061v-.061a9.225,9.225,0,0,1,18.434-.064Zm-4.766.062a4.528,4.528,0,0,0-4.482-4.7,4.367,4.367,0,0,0-4.418,4.642v.064a4.526,4.526,0,0,0,4.481,4.7,4.364,4.364,0,0,0,4.419-4.64Z" transform="translate(-131.076 -402.735)" fill="url(#linear-gradient)"/>
        <path id="Path_4361" data-name="Path 4361" d="M176.092,412.612v8.834a2.478,2.478,0,1,1-4.955,0v-7.271c0-2.345-1.109-3.552-3-3.552s-3.1,1.206-3.1,3.552v7.271a2.478,2.478,0,1,1-4.955,0V402.6a2.478,2.478,0,0,1,4.955,0v1.457a2.484,2.484,0,0,0,3.282,2.338,5.986,5.986,0,0,1,1.837-.275C173.907,406.122,176.092,408.6,176.092,412.612Z" transform="translate(-139.524 -400.127)" fill="url(#linear-gradient-2)"/>
        <path id="Path_4362" data-name="Path 4362" d="M213.758,415.008v8.9a2.478,2.478,0,1,1-4.955,0v-7.271c0-2.345-1.043-3.552-2.9-3.552a3.519,3.519,0,0,0-3.725,3.552v7.271a2.478,2.478,0,1,1-4.955,0v-7.271c0-2.345-1.043-3.552-2.9-3.552a3.388,3.388,0,0,0-3.559,3.552v7.271a2.478,2.478,0,1,1-4.955,0V411.391a2.478,2.478,0,0,1,4.477-1.462,1.012,1.012,0,0,0,1.51.215,7.682,7.682,0,0,1,4.68-1.558,5.635,5.635,0,0,1,3.665,1.2,2.371,2.371,0,0,0,2.9.056,9.384,9.384,0,0,1,4.822-1.257C211.544,408.586,213.761,410.8,213.758,415.008Z" transform="translate(-147.015 -402.591)" fill="url(#linear-gradient-3)"/>
        <path id="Path_4363" data-name="Path 4363" d="M246.6,411.846v10.6c0,3.13-.751,5.411-2.217,6.879-1.63,1.631-4.141,2.348-7.531,2.348a17.3,17.3,0,0,1-5.7-.942,2.011,2.011,0,1,1,1.384-3.776,11.076,11.076,0,0,0,4.183.771c1.937,0,3.289-.531,4.092-1.571a1.153,1.153,0,0,0-1.353-1.732,10.234,10.234,0,0,1-3.457.533c-4.076,0-7.761-2.967-7.761-8.149v-.067c0-5.217,3.751-8.152,7.761-8.152.153,0,.3.018.448.032a.106.106,0,0,0-.016-.018,6.829,6.829,0,0,1,4.18,1.521,1.017,1.017,0,0,0,1.462-.264,2.306,2.306,0,0,1,2.754-.768A2.926,2.926,0,0,1,246.6,411.846Zm-5.07,4.894a4.082,4.082,0,0,0-8.154,0v.061a3.825,3.825,0,0,0,4.061,3.875,3.87,3.87,0,0,0,4.093-3.875Z" transform="translate(-159.374 -402.591)" fill="url(#linear-gradient-4)"/>
        <path id="Path_4364" data-name="Path 4364" d="M271.538,425.248a8.775,8.775,0,0,1-5.3,1.529,8.924,8.924,0,0,1-9.1-9.033v-.064a8.975,8.975,0,0,1,9.163-9.1,9.279,9.279,0,0,1,4.95,1.222,2.232,2.232,0,0,1,.442,3.421,2.256,2.256,0,0,1-2.865.339,4.61,4.61,0,0,0-2.559-.71c-2.477,0-4.238,2.186-4.238,4.761v.067c0,2.673,1.728,4.824,4.435,4.824a4.777,4.777,0,0,0,2.657-.773,2.124,2.124,0,0,1,2.67.248l.036.037A2.121,2.121,0,0,1,271.538,425.248Z" transform="translate(-167.791 -402.589)" fill="url(#linear-gradient-5)"/>
        <path id="Path_4365" data-name="Path 4365" d="M297.743,412.612v8.834a2.478,2.478,0,1,1-4.955,0v-7.271c0-2.345-1.109-3.552-3-3.552s-3.1,1.206-3.1,3.552v7.271a2.478,2.478,0,1,1-4.955,0V402.6a2.478,2.478,0,0,1,4.955,0v1.457a2.484,2.484,0,0,0,3.282,2.338,5.985,5.985,0,0,1,1.837-.275C295.559,406.122,297.743,408.6,297.743,412.612Z" transform="translate(-174.953 -400.127)" fill="url(#linear-gradient-6)"/>
        <path id="Path_4366" data-name="Path 4366" d="M258.387,428.351a3.946,3.946,0,0,1-3.946,3.948h-.1a3.948,3.948,0,0,1,0-7.9h.1A3.946,3.946,0,0,1,258.387,428.351Z" transform="translate(-165.825 -407.197)" fill="#fff"/>
        <path id="Path_4367" data-name="Path 4367" d="M257.589,428.9a2.609,2.609,0,0,1-2.608,2.61h-.065a2.61,2.61,0,0,1,0-5.219h.065A2.609,2.609,0,0,1,257.589,428.9Z" transform="translate(-166.382 -407.747)" fill="url(#linear-gradient-7)"/>
      </g>
    </g>
    <path id="Path_4179" data-name="Path 4179" d="M121.014,406.408" transform="translate(232.469 -130.931)" fill="#faba9a"/>
    <g id="Group_5388" data-name="Group 5388" transform="translate(316 242.305)">
      <path id="Path_4392" data-name="Path 4392" d="M109.691,390.925a8.789,8.789,0,0,0-2.455-.3c-.617,0-1.246.038-1.855.074h-.018c-.32.019-.652.039-.976.052-2,.083-4.052.126-6.09.126l-1.4-.006-.178-.086a1.357,1.357,0,0,0-.55-.136c-.127,0-.253-.006-.38-.006a11.887,11.887,0,0,0-2.375.237l-1.762.359.807-1.607c.16-.318.317-.641.468-.961.2-.421.616-1.294.447-1.672l-.011-.024-.009-.024a.252.252,0,0,0-.044-.069l-.408-.527.4-.533a7.992,7.992,0,0,0,1.091-2.176.277.277,0,0,0-.024-.254.274.274,0,0,0-.058-.059l-.27-.21-.057-.338a.288.288,0,0,0-.018-.064.4.4,0,0,0-.187-.186l-.906-.48.617-.818a20.97,20.97,0,0,1,4.656-4.705l.023-.015a6.389,6.389,0,0,1,3.372-1,6.506,6.506,0,0,1,2.011.334l.033.01c2.154.666,4.092,2.377,5.924,5.231l.507.79-.824.449a.484.484,0,0,0-.164.138,2.232,2.232,0,0,0-.145,1.5l0,.027a4.658,4.658,0,0,0,1.021,2.032l.393.5-.353.528a.748.748,0,0,0-.083.164l-.023.066-.034.06a.661.661,0,0,0,.074.767,5.1,5.1,0,0,1,.881,1.7l.549,1.6Z" transform="translate(-81.031 -370.606)"/>
      <path id="Path_4393" data-name="Path 4393" d="M94.925,382.474a.615.615,0,0,0,.3.492,1.142,1.142,0,0,1,.135,1.048,8.789,8.789,0,0,1-1.218,2.412,1.094,1.094,0,0,1,.171.3,3.188,3.188,0,0,1-.456,2.4q-.236.5-.478.979a12.831,12.831,0,0,1,2.55-.254c.135,0,.272,0,.408.007a2.23,2.23,0,0,1,.9.222l1.2.005c2.033,0,4.069-.043,6.054-.125.322-.013.649-.033.978-.052.632-.038,1.273-.076,1.907-.076a9.619,9.619,0,0,1,2.7.337,4.235,4.235,0,0,0-.723-1.416,1.532,1.532,0,0,1-.172-1.75,1.584,1.584,0,0,1,.179-.356,5.563,5.563,0,0,1-1.195-2.42,3.1,3.1,0,0,1,.294-2.188,1.349,1.349,0,0,1,.453-.392c-1.724-2.685-3.489-4.264-5.446-4.868a5.341,5.341,0,0,0-4.7.565,20.388,20.388,0,0,0-4.437,4.5A1.249,1.249,0,0,1,94.925,382.474Z" transform="translate(-81.179 -370.687)" fill="#ffbb98"/>
      <path id="Path_4394" data-name="Path 4394" d="M112.319,383.174a2.9,2.9,0,0,1,1.7-.575,2.737,2.737,0,0,1,1.664.574l.021.016a2.5,2.5,0,0,1,.972,2.24l-.005.063-.416,1.638-1.229-.66-.124-.069.152-.275h0l-.162.27-.127-.069c-.147-.079-.295-.159-.446-.242a9.957,9.957,0,0,0-1.514-.724l-.458-.154-.186-.431-.025-.04c-.03-.048-.072-.115-.114-.2l-.418-.8Z" transform="translate(-82.73 -371.209)"/>
      <path id="Path_4395" data-name="Path 4395" d="M115.407,385.461c-.145-.076-.288-.155-.432-.234a10.777,10.777,0,0,0-1.689-.8c-.044-.1-.113-.191-.165-.29a1.688,1.688,0,0,1,2.036.011,1.407,1.407,0,0,1,.562,1.286l-.045.174C115.582,385.557,115.505,385.513,115.407,385.461Z" transform="translate(-82.859 -371.311)" fill="#f9957c"/>
      <path id="Path_4396" data-name="Path 4396" d="M92.082,382.931a2.9,2.9,0,0,0-1.7-.575,2.736,2.736,0,0,0-1.663.574l-.021.016a2.5,2.5,0,0,0-.972,2.24l.006.064.416,1.637,1.228-.661.125-.069-.152-.275h0l.162.27.127-.069c.147-.079.295-.159.446-.242a10.033,10.033,0,0,1,1.513-.724l.459-.154.186-.431.025-.04c.03-.048.072-.115.113-.2l.419-.8Z" transform="translate(-80.696 -371.188)"/>
      <path id="Path_4397" data-name="Path 4397" d="M98.627,378.067a6.454,6.454,0,0,1,5.223-.572,9.406,9.406,0,0,1,4.143,2.589,9.068,9.068,0,0,0-4.354-3.307,5.341,5.341,0,0,0-4.7.565,17.844,17.844,0,0,0-3.616,3.457A17.239,17.239,0,0,1,98.627,378.067Z" transform="translate(-81.344 -370.687)" fill="#ffe3d0"/>
      <path id="Path_4398" data-name="Path 4398" d="M93.863,390.1q-.236.5-.478.979a12.831,12.831,0,0,1,2.55-.254c.135,0,.272,0,.408.007a2.23,2.23,0,0,1,.9.222l1.2.005c2.033,0,4.069-.043,6.054-.125.322-.013.649-.033.978-.052.632-.038,1.273-.076,1.907-.076a9.618,9.618,0,0,1,2.7.337,4.235,4.235,0,0,0-.723-1.416,1.532,1.532,0,0,1-.172-1.75c.011-.031.031-.059.045-.089A16.019,16.019,0,0,1,94.4,388.6,5.729,5.729,0,0,1,93.863,390.1Z" transform="translate(-81.179 -371.659)" fill="#ff9378"/>
      <path id="Path_4399" data-name="Path 4399" d="M100.587,412.027a4.881,4.881,0,0,1-4.141-2.52,3.723,3.723,0,0,1-2.762,1.241H93.6a4.887,4.887,0,0,1-3.654-1.784,7.072,7.072,0,0,1-1.05-1.763,3.174,3.174,0,0,1-1.725.5,3.335,3.335,0,0,1-1.112-.193,4,4,0,0,1-2.441-2.945c-.141-.539-.255-1.081-.34-1.62-.05,0-.1,0-.153,0a3.056,3.056,0,0,1-2.849-2.078,5.929,5.929,0,0,1,.253-3.861,13.407,13.407,0,0,1,1.569-2.845,1.559,1.559,0,0,1-.541-.37,1.692,1.692,0,0,1-.419-1.315,4.977,4.977,0,0,1,.976-2.558,15.316,15.316,0,0,1,4.677-3.895c.492-.3,1.04-.607,1.724-.97.144-.076.286-.155.431-.233a11.038,11.038,0,0,1,1.665-.8,4.563,4.563,0,0,1,1.192-1.617,1.244,1.244,0,0,1,.826-.315,1.311,1.311,0,0,1,1.2.815,1.236,1.236,0,0,1,.07.241,1.2,1.2,0,0,1,.231.244,1.186,1.186,0,0,1,.14,1.09,8.849,8.849,0,0,1-1.2,2.4,1.139,1.139,0,0,1,.146.256,3.239,3.239,0,0,1-.446,2.458l-.013.027c-.13.275-.27.563-.424.872a13.06,13.06,0,0,1,2.465-.235c.136,0,.274,0,.412.006a2.281,2.281,0,0,1,.911.223q.591,0,1.184,0c2.036,0,4.073-.042,6.056-.125.32-.013.639-.032.977-.052.623-.037,1.267-.075,1.911-.075a9.771,9.771,0,0,1,2.629.314,4.037,4.037,0,0,0-.686-1.319,1.58,1.58,0,0,1-.179-1.8,1.665,1.665,0,0,1,.167-.336A5.583,5.583,0,0,1,107,384.7a3.023,3.023,0,0,1,.3-2.232,1.374,1.374,0,0,1,.926-.565,1.221,1.221,0,0,1,.216-.019c1.046,0,1.682,1.274,1.688,1.287a4.17,4.17,0,0,1,.186.481,1.859,1.859,0,0,0,.16.391,3.112,3.112,0,0,0,1.27.713c.19.075.371.145.541.223.244.112.489.22.735.33a17.756,17.756,0,0,1,4.157,2.326c.993.811,2.841,2.321,2.92,4.512a2.013,2.013,0,0,1-1.08,2.04,16.67,16.67,0,0,1,1.057,1.609c1.524,2.639,1.237,5.562-.652,6.654a3,3,0,0,1-1.515.4h0c-.088,0-.177,0-.265-.011,0,2.845-1.6,4.909-3.815,4.909a2.956,2.956,0,0,1-1.63-.5,5.141,5.141,0,0,1-4.6,3.423,4.552,4.552,0,0,1-2.917-1.093A4.875,4.875,0,0,1,100.587,412.027Z" transform="translate(-80.043 -371.148)"/>
      <path id="Path_4400" data-name="Path 4400" d="M89.224,385.218c.144-.076.288-.155.432-.234a10.81,10.81,0,0,1,1.688-.8c.045-.1.113-.19.166-.29a1.689,1.689,0,0,0-2.036.011,1.406,1.406,0,0,0-.562,1.287l.045.173C89.049,385.314,89.126,385.27,89.224,385.218Z" transform="translate(-80.797 -371.29)" fill="#f9957c"/>
      <path id="Path_4401" data-name="Path 4401" d="M100.68,411.12a4.153,4.153,0,0,1-3.708-2.889.426.426,0,0,0-.389-.281.37.37,0,0,0-.349.247,2.636,2.636,0,0,1-2.479,1.644h-.066a3.865,3.865,0,0,1-2.883-1.421,6.823,6.823,0,0,1-1.171-2.229.407.407,0,0,0-.381-.291.5.5,0,0,0-.347.16l-.009.009a2.207,2.207,0,0,1-1.639.727,2.337,2.337,0,0,1-.78-.136,3.065,3.065,0,0,1-1.805-2.255,15.264,15.264,0,0,1-.388-2,.457.457,0,0,0-.457-.437.642.642,0,0,0-.188.03,1.867,1.867,0,0,1-.427.049,2.029,2.029,0,0,1-1.906-1.41,4.935,4.935,0,0,1,.242-3.167,13.334,13.334,0,0,1,1.947-3.3.5.5,0,0,0,.115-.532.406.406,0,0,0-.386-.219h-.018l-.118,0a.965.965,0,0,1-.715-.215.743.743,0,0,1-.149-.568,3.991,3.991,0,0,1,.791-2.037,14.47,14.47,0,0,1,4.383-3.622c.475-.288,1.006-.587,1.673-.94q.221-.118.443-.241a8.494,8.494,0,0,1,1.83-.824l.114-.031.038-.112a3.586,3.586,0,0,1,1.05-1.566.253.253,0,0,1,.17-.07.319.319,0,0,1,.277.19.175.175,0,0,1-.051.206l0,.324.181.057a.361.361,0,0,1,.044,0,.3.3,0,0,1,.234.105.189.189,0,0,1,.013.18,7.226,7.226,0,0,1-1.263,2.384.6.6,0,0,0,.119.843.784.784,0,0,1,.1.132l0,.011c.17.384-.219,1.2-.427,1.643l-.013.027c-.258.546-.555,1.141-.936,1.871l-.005.013a.517.517,0,0,0-.009.509.408.408,0,0,0,.354.176.634.634,0,0,0,.174-.025,12.154,12.154,0,0,1,3.367-.478c.126,0,.253,0,.38.006a1.268,1.268,0,0,1,.638.195l.063.04.074-.006c.039,0,.081-.005.123-.005.416,0,.823,0,1.23,0,2.049,0,4.1-.042,6.1-.126.328-.014.667-.034.994-.053.608-.036,1.237-.073,1.852-.073a7.2,7.2,0,0,1,3.336.65.86.86,0,0,0,.335.085.349.349,0,0,0,.29-.132.412.412,0,0,0,.048-.377l0-.013-.006-.013c-.109-.271-.2-.547-.291-.815a5.838,5.838,0,0,0-1-2.035.592.592,0,0,1-.043-.714l.016-.027.009-.03a.673.673,0,0,1,.284-.381.358.358,0,0,0,.179-.245.336.336,0,0,0-.077-.274,5.321,5.321,0,0,1-1.346-2.406,2.147,2.147,0,0,1,.126-1.461.363.363,0,0,1,.266-.163h.011l.011,0a.223.223,0,0,1,.044,0c.288,0,.686.509.785.717a3.334,3.334,0,0,1,.141.371,2.553,2.553,0,0,0,.277.629,3.6,3.6,0,0,0,1.734,1.086c.178.07.347.136.493.2.247.113.494.222.742.333a16.794,16.794,0,0,1,3.932,2.188c1.2.984,2.495,2.168,2.552,3.773.027.743-.277,1.145-.9,1.2-.2.014-.546.075-.634.334a.4.4,0,0,0,.153.437,14.889,14.889,0,0,1,1.5,2.147c1.223,2.118,1.094,4.489-.286,5.287a2,2,0,0,1-1.015.262h0a2.814,2.814,0,0,1-.873-.147.338.338,0,0,0-.362.1.383.383,0,0,0-.068.325,6.879,6.879,0,0,1,.038.708c0,2.265-1.184,3.909-2.815,3.909a2.2,2.2,0,0,1-1.612-.786l-.013-.013a.408.408,0,0,0-.28-.116.446.446,0,0,0-.41.341,4.349,4.349,0,0,1-3.914,3.5,3.67,3.67,0,0,1-2.641-1.2.53.53,0,0,0-.915.218A4,4,0,0,1,100.68,411.12Z" transform="translate(-80.136 -371.242)" fill="#eee"/>
      <g id="Group_5414" data-name="Group 5414" transform="translate(10.244 25.174)">
        <path id="Path_4402" data-name="Path 4402" d="M111.36,398.478a2.5,2.5,0,0,1-.255.023,2.217,2.217,0,0,1-1.1-.279,2.027,2.027,0,0,1-1.12.55,2.058,2.058,0,0,1-1.873,1.036,2.445,2.445,0,0,1-.525-.055,3.111,3.111,0,0,1-1.962-1.293,2.116,2.116,0,0,1-.576.171,2.059,2.059,0,0,1-1.7,1.55c-1.036.576-2.467-.1-3.157-1.089a2.164,2.164,0,0,1-.746-1.164A4.317,4.317,0,0,1,97.4,399a2.257,2.257,0,0,1-3.948-.867c-.2-.086-.294-.335-.444-.468a2.661,2.661,0,0,1-1.246.262l-.041,0a3.423,3.423,0,0,1-.472-.027,21.093,21.093,0,0,0,1.282,5.743c.322.626,1.44,2.868,6.49,3.186.671.043,4.787.034,5.619-.049,4.526-.455,5.565-2.537,5.873-3.137a12.6,12.6,0,0,0,1.017-5.022A1.885,1.885,0,0,1,111.36,398.478Z" transform="translate(-91.241 -397.666)"/>
        <path id="Path_4403" data-name="Path 4403" d="M105.849,407.3a2.386,2.386,0,0,0-1.178-2.374,2.313,2.313,0,0,0-2.49.408c-.041.042-.081.086-.116.13a1.8,1.8,0,0,0-.4-.412,2.16,2.16,0,0,0-1.914-.283,1.768,1.768,0,0,0-1.182,1.4,5.635,5.635,0,0,0-.011,1.047c0,.036,0,.07,0,.105.338.045.7.081,1.079.105.672.043,4.787.034,5.619-.049C105.462,407.355,105.657,407.33,105.849,407.3Zm-5.575-.574c-.027-.055-.037-.124,0,0Z" transform="translate(-91.862 -398.262)" fill="url(#linear-gradient-8)"/>
      </g>
      <path id="Path_4404" data-name="Path 4404" d="M101.528,400.137a4.644,4.644,0,0,1-2.911-1.184,2.955,2.955,0,0,1-.6-.717.219.219,0,0,0-.169-.111h-.024a.224.224,0,0,0-.166.074,3.6,3.6,0,0,1-2.506,1.468,1.967,1.967,0,0,1-.31-.026c-1.168-.192-1.88-1.432-2.2-2.154a.222.222,0,0,0-.2-.133.217.217,0,0,0-.082.016,5.64,5.64,0,0,1-2.072.464,2.821,2.821,0,0,1-1.647-.488,4.5,4.5,0,0,1-1.553-3.006,9.791,9.791,0,0,1-.1-2.149.236.236,0,0,1,.224-.218h.022a.238.238,0,0,1,.223.255c-.012.145-.255,3.54,1.454,4.731a2.373,2.373,0,0,0,1.383.4,5.637,5.637,0,0,0,2.3-.608.229.229,0,0,1,.1-.021.251.251,0,0,1,.1.019.232.232,0,0,1,.128.144c.007.021.686,2.064,2.006,2.28a1.4,1.4,0,0,0,.224.018c.821,0,1.74-.678,2.732-2.014a.231.231,0,0,1,.189-.1.228.228,0,0,1,.1.024.236.236,0,0,1,.124.274c-.089.324.148.78.636,1.219a4.217,4.217,0,0,0,2.6,1.062,2.158,2.158,0,0,0,.783-.137,2.367,2.367,0,0,0,1.309-2.228.236.236,0,0,1,.188-.21.257.257,0,0,1,.041,0,.24.24,0,0,1,.213.123c.109.2,1.1,1.924,2.484,2.007l.078,0c.8,0,1.567-.53,2.334-1.618a.232.232,0,0,1,.19-.1.228.228,0,0,1,.078.014,4.818,4.818,0,0,0,1.563.273,3.506,3.506,0,0,0,2.146-.686c1.1-.833,1.613-2.311,1.5-4.275a.237.237,0,0,1,.221-.25h.011a.247.247,0,0,1,.238.221c.162,2.689-.825,4.028-1.681,4.679a3.969,3.969,0,0,1-2.43.782,5.208,5.208,0,0,1-1.4-.2.2.2,0,0,0-.06-.008.222.222,0,0,0-.177.087,3.283,3.283,0,0,1-2.5,1.555c-.045,0-.091,0-.137,0a3.407,3.407,0,0,1-2.255-1.366.222.222,0,0,0-.171-.081.313.313,0,0,0-.04,0,.223.223,0,0,0-.17.148,2.393,2.393,0,0,1-1.4,1.575,2.644,2.644,0,0,1-.96.17Z" transform="translate(-80.632 -372.007)" fill="#00040a"/>
      <g id="Group_5415" data-name="Group 5415" transform="translate(15.107 15.821)">
        <ellipse id="Ellipse_354" data-name="Ellipse 354" cx="5.321" cy="4.106" rx="5.321" ry="4.106" fill="#00040a"/>
        <ellipse id="Ellipse_355" data-name="Ellipse 355" cx="4.599" cy="3.435" rx="4.599" ry="3.435" transform="translate(0.722 0.671)" fill="#ff8378"/>
        <path id="Path_4405" data-name="Path 4405" d="M101.945,393.514c2.154,0,3.978-.876,4.592-2.086-.127-1.812-2.134-3.252-4.592-3.252s-4.464,1.44-4.593,3.252C97.966,392.638,99.79,393.514,101.945,393.514Z" transform="translate(-96.623 -387.505)" fill="#ff9d8f"/>
        <ellipse id="Ellipse_356" data-name="Ellipse 356" cx="2.141" cy="1.05" rx="2.141" ry="1.05" transform="translate(3.18 1.241)" fill="#fff"/>
      </g>
      <g id="Group_5417" data-name="Group 5417" transform="translate(12.216 6.968)">
        <path id="Path_4406" data-name="Path 4406" d="M104.989,379.363a3.511,3.511,0,0,0-2.915,1.51,4.442,4.442,0,1,0-.237,3.266,3.5,3.5,0,0,0,3.152,1.915,3.349,3.349,0,1,0,0-6.691Z" transform="translate(-93.396 -377.766)" fill="#070707"/>
        <g id="Group_5416" data-name="Group 5416" transform="translate(0.596 0.595)">
          <ellipse id="Ellipse_357" data-name="Ellipse 357" cx="3.833" cy="3.833" rx="3.833" ry="3.833" transform="translate(0)" fill="#fff"/>
          <path id="Path_4407" data-name="Path 4407" d="M101.711,382.207a4.1,4.1,0,0,0-4.056-2.649,4.491,4.491,0,0,0-3.347,1.4,3.833,3.833,0,1,0,7.4,1.39C101.714,382.3,101.712,382.254,101.711,382.207Z" transform="translate(-94.048 -378.513)" fill="#cbf1ff"/>
          <ellipse id="Ellipse_358" data-name="Ellipse 358" cx="0.496" cy="0.496" rx="0.496" ry="0.496" transform="translate(5.26 3.812)" fill="#070707"/>
          <ellipse id="Ellipse_359" data-name="Ellipse 359" cx="2.928" cy="2.758" rx="2.928" ry="2.758" transform="translate(8.05 1.486)" fill="#fff"/>
          <path id="Path_4408" data-name="Path 4408" d="M102.953,382.163a2.615,2.615,0,0,0-.106.736,2.933,2.933,0,0,0,5.855,0,2.615,2.615,0,0,0-.12-.783,4.805,4.805,0,0,0-5.629.047Z" transform="translate(-94.797 -378.655)" fill="#cbf1ff"/>
          <ellipse id="Ellipse_360" data-name="Ellipse 360" cx="0.496" cy="0.496" rx="0.496" ry="0.496" transform="translate(9.35 3.812)" fill="#070707"/>
        </g>
      </g>
      <path id="Path_4409" data-name="Path 4409" d="M106.917,376a.8.8,0,0,1-.6-.265,3.859,3.859,0,0,0-2.566-1.084.856.856,0,0,1-.768-.963,4.283,4.283,0,0,1,.872-2.305,1.573,1.573,0,0,1,1.187-.444,3.3,3.3,0,0,1,.343.02l.034,0c.773.057,1.6.221,1.712,1.444.072.047.152.091.234.139a1.552,1.552,0,0,1,.987,1.63,2.575,2.575,0,0,1-.653,1.321c-.047.057-.094.115-.117.149a.8.8,0,0,1-.668.355Z" transform="translate(-81.996 -370.216)"/>
      <path id="Path_4410" data-name="Path 4410" d="M97.617,375.48a.816.816,0,0,1-.679-.361c-.026-.038-.075-.1-.128-.163a2.688,2.688,0,0,1-.689-1.392,1.624,1.624,0,0,1,1.035-1.7c.1-.054.188-.106.271-.162.117-1.4,1.163-1.479,1.794-1.526l.037,0a3.347,3.347,0,0,1,.363-.022,1.646,1.646,0,0,1,1.24.463,4.554,4.554,0,0,1,.92,2.442.873.873,0,0,1-.782.982,4.168,4.168,0,0,0-2.775,1.176.821.821,0,0,1-.607.269Z" transform="translate(-81.411 -370.149)"/>
      <path id="Path_4411" data-name="Path 4411" d="M106.727,372.9a.392.392,0,0,1-.151-.291c-.039-.8-.379-.911-1.142-.968a1.325,1.325,0,0,0-1.069.231,3.908,3.908,0,0,0-.7,1.952.234.234,0,0,0,.209.262,4.454,4.454,0,0,1,2.969,1.287.182.182,0,0,0,.285-.02,2.6,2.6,0,0,0,.669-1.2C107.889,373.378,107.236,373.28,106.727,372.9Z" transform="translate(-82.054 -370.274)" fill="#fff"/>
      <path id="Path_4412" data-name="Path 4412" d="M100.469,371.1a1.421,1.421,0,0,0-1.144-.248c-.818.06-1.181.181-1.223,1.037a.415.415,0,0,1-.162.311c-.544.405-1.243.511-1.141,1.344a2.778,2.778,0,0,0,.715,1.282.193.193,0,0,0,.3.022A4.773,4.773,0,0,1,101,373.472a.248.248,0,0,0,.222-.28A4.175,4.175,0,0,0,100.469,371.1Z" transform="translate(-81.469 -370.207)" fill="#fff"/>
    </g>
    <path id="Path_4260" data-name="Path 4260" d="M133.09,396.142" transform="translate(235.271 -144.862)"/>
  </g>
</svg>
